<svg preserveAspectRatio="none" overflow="visible" style="display: block;" width="16" height="16" viewBox="0 0 16 16" fill="none" xmlns="http://www.w3.org/2000/svg">
<g id="griddy-icons:play-filled">
<path id="Vector" d="M13.25 7.27672L5.25 2.66005C5.12354 2.58625 4.97975 2.54736 4.83333 2.54736C4.68691 2.54736 4.54312 2.58625 4.41666 2.66005C4.28928 2.7328 4.18355 2.83815 4.11033 2.96526C4.0371 3.09238 3.99902 3.23669 4 3.38338V12.6201C3.99991 12.7664 4.03833 12.9102 4.1114 13.037C4.18448 13.1638 4.28962 13.2691 4.41629 13.3424C4.54295 13.4157 4.68667 13.4544 4.83301 13.4545C4.97935 13.4547 5.12316 13.4164 5.25 13.3434L13.25 8.72338C13.51 8.57338 13.6667 8.30338 13.6667 8.00005C13.6667 7.69672 13.51 7.43005 13.25 7.27672Z" fill="#F0E9D6"/>
</g>
</svg>
